<svg data-name="43d0oJSG_400x400 (1) 1" height="193.846" id="_43d0oJSG_400x400_1_1"
    viewBox="0 0 120 193.846" width="120" xmlns="http://www.w3.org/2000/svg">
    <rect data-name="43d0oJSG_400x400 (1) 1" fill="none" height="193.846"
        id="_43d0oJSG_400x400_1_1-2" width="120" />
    <path
        d="M91.879,28.531c0,18.172-4.266,37.1-16.616,51.176a43.914,43.914,0,0,1-65.886.013C-4.989,63.331-2.45,34.465,14.269,20.532,31.626,6.067,61.782,7.751,73,29.371c-11.329-10.49-18.881-14.887-30.21-14.887C12.158,14.484-2.451,47.5,12.882,70.49c15.532,23.287,46.971,20.473,62.7-.839C89.967,50.15,91.584,22.933,87.263,0c4.615,7.133,4.615,19.789,4.615,28.531Z"
        fill="#fcf4f8" id="Vector" transform="translate(5.884 10.909)" />
    <path
        d="M103.925,31.049c-3.242,26.4-14.486,49.5-31.774,69.65a98.834,98.834,0,0,1-21.332,18.715c-2.189,1.406-6.148,4.4-8.951,3.348-3.946-1.483,2.455-11.262,3.333-13.672,4.813-13.214,6.042-27.564-2.71-39.441C35.767,60.525,24.9,55.143,14.735,50.705,10.481,48.85,1.936,46.834.329,41.922c-1.591-4.863,2.994-10.3,5.175-14.23h.839c-.482,3.275-3.193,8.421-1.579,11.559,1.944,3.782,9.649,4.628,13.327,5.846,9.084,3.009,18.635,7.078,25.981,13.323C58.811,70.952,58.06,87.574,56.693,104.9c22.94-22.94,40.79-48.435,45.072-81.4.993-7.646.243-15.791.243-23.5,4.353,8.187,3.015,22.113,1.917,31.049Z"
        data-name="Vector" fill="#fcf4f8" id="Vector-2" transform="translate(6.244 67.133)" />
</svg>
